<svg id="visual" viewBox="0 0 960 540" width="960" height="540" xmlns="http://www.w3.org/2000/svg" xmlns:xlink="http://www.w3.org/1999/xlink" version="1.1"><rect x="0" y="0" width="960" height="540" fill="#05BFDB"></rect><g transform="translate(451.58523543848355 248.20595803979617)"><path d="M137.3 -197.8C177.4 -188 208.8 -148.8 224.2 -105.3C239.6 -61.7 239.1 -13.7 225.4 27.4C211.7 68.5 184.8 102.7 157.4 139C130 175.4 102 213.9 63.7 231.8C25.4 249.8 -23.2 247.2 -64.4 230.2C-105.6 213.1 -139.3 181.5 -158 145.2C-176.7 108.8 -180.4 67.6 -178.4 30.4C-176.4 -6.9 -168.7 -40.2 -160.8 -80.1C-152.9 -120 -144.9 -166.4 -118 -182.3C-91.2 -198.1 -45.6 -183.5 1.5 -185.8C48.7 -188.2 97.3 -207.7 137.3 -197.8" fill="#088395"></path></g></svg>